<svg width="61" height="71" viewBox="0 0 61 71" fill="none" xmlns="http://www.w3.org/2000/svg">
<g filter="url(#filter0_f_268_1007)">
<ellipse cx="30.5" cy="64" rx="8.5" ry="3" fill="black" fill-opacity="0.2"/>
</g>
<g filter="url(#filter1_d_268_1007)">
<path fill-rule="evenodd" clip-rule="evenodd" d="M30.5 4C44.5833 4 56 15.4167 56 29.5C56 40.2983 49.2881 49.5289 39.8087 53.2475L31.9521 63.9865C31.7883 64.2113 31.5709 64.3948 31.3181 64.5215C31.0653 64.6481 30.7846 64.7143 30.4997 64.7143C30.2149 64.7143 29.9342 64.6481 29.6814 64.5215C29.4286 64.3948 29.2111 64.2113 29.0473 63.9865L21.1905 53.2472C11.7115 49.5284 5 40.298 5 29.5C5 15.4167 16.4167 4 30.5 4Z" fill="#FFB343"/>
</g>
<path d="M36.8999 18.4C37.2115 17.9767 37.4482 17.5032 37.5999 17C38.4503 17.1809 39.2388 17.5804 39.8877 18.1591C40.5366 18.7378 41.0233 19.4757 41.2999 20.3C41.4979 21.0166 41.5988 21.7565 41.5999 22.5C41.4093 23.7724 40.7707 24.935 39.799 25.7783C38.8273 26.6217 37.5864 27.0904 36.2999 27.1H24.6999C23.8315 27.0823 23.0051 26.723 22.3999 26.1C21.7708 25.4581 21.4127 24.5987 21.3999 23.7C21.3995 22.8153 21.744 21.9653 22.3601 21.3305C22.9763 20.6957 23.8156 20.326 24.6999 20.3H32.7999C33.5856 20.3356 34.3683 20.1816 35.082 19.8508C35.7956 19.5201 36.4192 19.0225 36.8999 18.4Z" fill="url(#paint0_linear_268_1007)" stroke="#2D301F" stroke-width="2" stroke-linecap="round" stroke-linejoin="round"/>
<path d="M40.1 27.1H22.9C20.7461 27.1 19 28.8259 19 30.955C19 33.0841 20.7461 34.81 22.9 34.81H40.1C42.2539 34.81 44 33.0841 44 30.955C44 28.8259 42.2539 27.1 40.1 27.1Z" fill="url(#paint1_linear_268_1007)" stroke="#2D301F" stroke-width="2" stroke-linecap="round" stroke-linejoin="round"/>
<path d="M40.4999 34.8H22.3999L23.3999 43.5H39.4999L40.4999 34.8Z" stroke="#2D301F" stroke-width="2" stroke-linecap="round" stroke-linejoin="round"/>
<path d="M29 43.5V39.1" stroke="#2D301F" stroke-width="2" stroke-linecap="round" stroke-linejoin="round"/>
<path d="M34 43.5V39.1" stroke="#2D301F" stroke-width="2" stroke-linecap="round" stroke-linejoin="round"/>
<defs>
<filter id="filter0_f_268_1007" x="20" y="59" width="21" height="10" filterUnits="userSpaceOnUse" color-interpolation-filters="sRGB">
<feFlood flood-opacity="0" result="BackgroundImageFix"/>
<feBlend mode="normal" in="SourceGraphic" in2="BackgroundImageFix" result="shape"/>
<feGaussianBlur stdDeviation="1" result="effect1_foregroundBlur_268_1007"/>
</filter>
<filter id="filter1_d_268_1007" x="0" y="0" width="61" height="70.7143" filterUnits="userSpaceOnUse" color-interpolation-filters="sRGB">
<feFlood flood-opacity="0" result="BackgroundImageFix"/>
<feColorMatrix in="SourceAlpha" type="matrix" values="0 0 0 0 0 0 0 0 0 0 0 0 0 0 0 0 0 0 127 0" result="hardAlpha"/>
<feOffset dy="1"/>
<feGaussianBlur stdDeviation="2.5"/>
<feComposite in2="hardAlpha" operator="out"/>
<feColorMatrix type="matrix" values="0 0 0 0 0 0 0 0 0 0 0 0 0 0 0 0 0 0 0.1 0"/>
<feBlend mode="normal" in2="BackgroundImageFix" result="effect1_dropShadow_268_1007"/>
<feBlend mode="normal" in="SourceGraphic" in2="effect1_dropShadow_268_1007" result="shape"/>
</filter>
<linearGradient id="paint0_linear_268_1007" x1="21.386" y1="27.1118" x2="32.1136" y2="10.7619" gradientUnits="userSpaceOnUse">
<stop stop-color="#FF7DAC"/>
<stop offset="1" stop-color="#FF0440"/>
</linearGradient>
<linearGradient id="paint1_linear_268_1007" x1="18.9828" y1="34.819" x2="25.1914" y2="19.4776" gradientUnits="userSpaceOnUse">
<stop stop-color="#FF7DAC"/>
<stop offset="1" stop-color="#FF0440"/>
</linearGradient>
</defs>
</svg>
