<svg width="48" height="48" viewBox="0 0 48 48" fill="none" xmlns="http://www.w3.org/2000/svg">
<g clip-path="url(#clip0_208_982)">
<path d="M10.5556 34H35.4444C36.3 34 37 33.25 37 32.3333C37 31.4167 36.3 30.6667 35.4444 30.6667H10.5556C9.7 30.6667 9 31.4167 9 32.3333C9 33.25 9.7 34 10.5556 34ZM10.5556 25.6667H35.4444C36.3 25.6667 37 24.9167 37 24C37 23.0833 36.3 22.3333 35.4444 22.3333H10.5556C9.7 22.3333 9 23.0833 9 24C9 24.9167 9.7 25.6667 10.5556 25.6667ZM9 15.6667C9 16.5833 9.7 17.3333 10.5556 17.3333H23H35.4444C36.3 17.3333 37 16.5833 37 15.6667C37 14.75 36.3 14 35.4444 14H23H10.5556C9.7 14 9 14.75 9 15.6667Z" fill="black"/>
</g>
<defs>
<clipPath id="clip0_208_982">
<rect width="48" height="48" fill="white"/>
</clipPath>
</defs>
</svg>
