<svg width="24" height="24" viewBox="0 0 24 24" fill="none" xmlns="http://www.w3.org/2000/svg">
<path fill-rule="evenodd" clip-rule="evenodd" d="M4.36982 6.87562C4.36982 4.39009 6.38475 2.37518 8.87025 2.37518C11.3558 2.37518 13.3707 4.39009 13.3707 6.87562C13.3707 8.62724 12.3702 10.1469 10.9049 10.8912C10.5461 11.0735 10.3314 11.4531 10.3603 11.8546C10.3892 12.2561 10.6559 12.6011 11.0372 12.7301C11.585 12.9156 12.1 13.1695 12.5715 13.4813C13.0321 13.786 13.6526 13.6596 13.9573 13.1989C14.262 12.7382 14.1356 12.1177 13.6749 11.813C13.5636 11.7394 13.4505 11.6683 13.3356 11.5997C14.5881 10.4154 15.3709 8.7374 15.3709 6.87562C15.3709 3.28542 12.4604 0.374985 8.87025 0.374985C5.28005 0.374985 2.36962 3.28542 2.36962 6.87562C2.36962 8.73815 3.15304 10.4168 4.4065 11.6012C2.36508 12.8201 0.877334 14.8522 0.420329 17.251C0.292797 17.9203 0.416728 18.596 0.807658 19.1392C1.19923 19.6832 1.80214 20.0156 2.48231 20.1028C3.60264 20.2462 5.53247 20.3769 8.87215 20.3769C10.2938 20.3769 11.4585 20.3532 12.413 20.3151C12.9649 20.2931 13.3944 19.8278 13.3724 19.2759C13.3504 18.724 12.8851 18.2945 12.3332 18.3165C11.4099 18.3534 10.2721 18.3767 8.87215 18.3767C5.57243 18.3767 3.73724 18.2469 2.73638 18.1188C2.54909 18.0948 2.46688 18.0204 2.4311 17.9707C2.39468 17.9201 2.34904 17.815 2.38518 17.6253C2.8185 15.3508 4.4872 13.4823 6.70514 12.7308C7.08637 12.6017 7.353 12.2565 7.38175 11.855C7.4105 11.4536 7.19578 11.074 6.83685 10.8918C5.37086 10.1478 4.36982 8.62774 4.36982 6.87562ZM15.7535 13.3084C16.417 13.2086 17.4079 13.1262 18.8737 13.1262C20.3395 13.1262 21.3305 13.2086 21.994 13.3084C22.9208 13.4479 23.4594 14.2105 23.5308 15.0895C23.5801 15.6964 23.6242 16.4874 23.6242 17.3766C23.6242 19.7159 22.4918 21.9942 20.4029 23.1165C19.8722 23.4016 19.3205 23.6272 18.8737 23.6272C18.427 23.6272 17.8753 23.4016 17.3446 23.1165C15.2557 21.9942 14.1233 19.7159 14.1233 17.3766C14.1233 16.4874 14.1673 15.6964 14.2166 15.0895C14.288 14.2105 14.8267 13.4479 15.7535 13.3084Z" fill="#183053"/>
</svg>
