<svg width="44" height="44" viewBox="0 0 44 44" fill="none" xmlns="http://www.w3.org/2000/svg">
<g clip-path="url(#clip0_100_1024)">
<path fill-rule="evenodd" clip-rule="evenodd" d="M3.92857 22C3.92857 12.0194 12.0194 3.92857 22 3.92857C31.9805 3.92857 40.0714 12.0194 40.0714 22C40.0714 31.9805 31.9805 40.0714 22 40.0714C12.0194 40.0714 3.92857 31.9805 3.92857 22ZM22 0C9.84975 0 0 9.84975 0 22C0 34.1503 9.84975 44 22 44C34.1503 44 44 34.1503 44 22C44 9.84975 34.1503 0 22 0ZM26.9509 16.2249C26.9959 16.2284 27.2131 16.2449 27.5683 16.3388C27.9514 16.4401 28.3404 16.5915 28.6471 16.7686C28.9539 16.9457 29.2795 17.2069 29.5588 17.4881C29.8176 17.7486 29.9406 17.9285 29.966 17.9657C29.9705 17.9722 29.972 17.9743 29.9707 17.9718C30.5655 19.1298 31.9864 19.5862 33.1446 18.9913C34.3024 18.3964 34.7587 16.9755 34.1638 15.8176C33.8662 15.2378 33.3859 14.6513 32.9032 14.1656C32.3959 13.655 31.7454 13.1138 31.0043 12.6859C30.2631 12.258 29.4691 11.9651 28.7733 11.7811C28.1114 11.6061 27.3633 11.4834 26.7124 11.5154C25.4121 11.5792 24.4098 12.6849 24.4735 13.9852C24.5373 15.2854 25.6431 16.2878 26.9433 16.224C26.9405 16.2242 26.9431 16.2243 26.9509 16.2249ZM17.2876 11.52C16.6366 11.4881 15.8885 11.6108 15.2266 11.7857C14.5308 11.9697 13.7368 12.2626 12.9957 12.6905C12.2545 13.1184 11.6039 13.6596 11.0966 14.1702C10.6142 14.6559 10.1339 15.2424 9.83601 15.8221C9.24113 16.9801 9.69757 18.4011 10.8555 18.9959C12.0134 19.5908 13.4344 19.1344 14.0293 17.9764C14.028 17.979 14.0295 17.9768 14.0339 17.9703C14.0594 17.9331 14.1823 17.7532 14.4412 17.4926C14.7205 17.2115 15.0461 16.9503 15.3528 16.7732C15.6596 16.5961 16.0486 16.4447 16.4317 16.3434C16.7868 16.2495 17.0041 16.233 17.049 16.2295C17.0569 16.2289 17.0595 16.2287 17.0566 16.2286C18.3569 16.2924 19.4626 15.29 19.5264 13.9898C19.5902 12.6895 18.5878 11.5838 17.2876 11.52ZM10.5525 27.6859C12.8861 23.813 17.1384 21.2143 22 21.2143C26.8616 21.2143 31.114 23.813 33.4475 27.6859C34.1195 28.8009 33.7603 30.2495 32.6452 30.9213C31.5301 31.5933 30.0815 31.234 29.4096 30.1189C27.8935 27.6028 25.1412 25.9286 22 25.9286C18.8589 25.9286 16.1065 27.6028 14.5904 30.1189C13.9185 31.234 12.4699 31.5933 11.3549 30.9213C10.2399 30.2495 9.88061 28.8009 10.5525 27.6859Z" fill="#1D1E1F" fill-opacity="0.39"/>
</g>
<defs>
<clipPath id="clip0_100_1024">
<rect width="44" height="44" fill="white"/>
</clipPath>
</defs>
</svg>
